<svg width="18" height="18" viewBox="0 0 18 18" fill="none" xmlns="http://www.w3.org/2000/svg">
<path d="M2.54506 11.1443L5.4367 8.25268L7.84045 10.6573L10.5238 7.97389L8.99983 6.44987H13.2497V10.6998L11.7257 9.17576L7.84045 13.061L5.4367 10.6573L3.333 12.7601C4.28788 14.1973 5.75342 15.2178 7.43266 15.6147C9.11189 16.0116 10.8792 15.7552 12.3765 14.8976C13.8737 14.04 14.989 12.6452 15.4962 10.9959C16.0034 9.34665 15.8646 7.56624 15.108 6.01548C14.3514 4.46471 13.0335 3.25957 11.4215 2.64429C9.80939 2.029 8.0237 2.04958 6.42624 2.70185C4.82878 3.35413 3.53903 4.58931 2.81836 6.1571C2.09769 7.72489 1.99999 9.50718 2.54506 11.1443ZM1.23779 12.4686L1.22929 12.4601L1.23269 12.4567C0.748141 11.3687 0.49848 10.1908 0.500007 8.99982C0.500007 4.30537 4.30538 0.5 8.99983 0.5C13.6943 0.5 17.4996 4.30537 17.4996 8.99982C17.4996 13.6943 13.6943 17.4996 8.99983 17.4996C5.5404 17.4996 2.56546 15.4342 1.23779 12.4686Z" fill="white"/>
</svg>
