<svg width="29" height="23" viewBox="0 0 29 23" fill="none" xmlns="http://www.w3.org/2000/svg">
<path d="M14.164 9.77867L9.50186 5.10845C9.45445 5.06096 9.37758 5.06096 9.33017 5.10845L0.851797 13.6014C0.804388 13.6489 0.804389 13.7259 0.851798 13.7734L5.51398 18.4436C5.56139 18.4911 5.63826 18.4911 5.68566 18.4436L14.164 9.95065C14.2115 9.90316 14.2115 9.82616 14.164 9.77867Z" fill="#2F80ED"/>
<path d="M23.3763 18.4197L27.991 13.797C28.0515 13.7364 28.0515 13.6381 27.991 13.5775L19.5601 5.13206C19.4996 5.07143 19.4015 5.07143 19.3409 5.13206L14.7262 9.75471C14.6657 9.81534 14.6657 9.91363 14.7262 9.97426L23.1571 18.4197C23.2177 18.4803 23.3158 18.4803 23.3763 18.4197Z" fill="#2F80ED"/>
<path d="M19.0531 18.1223L14.4999 13.5613C14.4614 13.5227 14.399 13.5227 14.3605 13.5613L9.80726 18.1223C9.76877 18.1609 9.76878 18.2234 9.80726 18.2619L14.3605 22.823C14.399 22.8616 14.4614 22.8616 14.4999 22.823L19.0531 18.2619C19.0916 18.2234 19.0916 18.1609 19.0531 18.1223Z" fill="#012555"/>
<path d="M19.0531 4.76467L14.4999 0.203587C14.4614 0.165039 14.399 0.165039 14.3605 0.203587L9.80726 4.76468C9.76878 4.80322 9.76878 4.86572 9.80726 4.90427L14.3605 9.46536C14.399 9.50391 14.4614 9.50391 14.4999 9.46536L19.0531 4.90427C19.0916 4.86572 19.0916 4.80322 19.0531 4.76467Z" fill="#012555"/>
</svg>
