<svg width="37" height="37" viewBox="0 0 37 37" fill="none" xmlns="http://www.w3.org/2000/svg">
<circle cx="18.3906" cy="18.5" r="18" fill="#DFF3FF"/>
<path d="M15.9041 18.2224C16.3573 18.6766 16.9643 18.9444 17.6051 18.9729V19.515H17.6081C17.6143 19.7848 17.835 20.0001 18.1049 20.0001C18.3747 20.0001 18.5952 19.7848 18.6014 19.515H18.6044V18.9491C19.0455 18.9178 19.4587 18.7216 19.7621 18.3997C20.0653 18.0778 20.2363 17.6537 20.2414 17.2114C20.2712 16.7495 20.1061 16.2963 19.7864 15.9617C19.4686 15.6948 19.0744 15.5355 18.6602 15.5068L17.9645 15.4077H17.9646C17.7634 15.3868 17.5731 15.3058 17.4186 15.1752C17.3044 15.0647 17.2414 14.9115 17.2448 14.7526C17.2448 14.3484 17.5421 14.0085 18.1546 14.0085C18.5958 13.9745 19.0319 14.1204 19.3639 14.4128L19.365 14.4115V14.4116C19.4611 14.5113 19.5937 14.5675 19.7322 14.5675C19.8706 14.5675 20.003 14.5113 20.0993 14.4116C20.1954 14.312 20.2469 14.1776 20.2421 14.0393C20.2371 13.9009 20.1763 13.7705 20.0732 13.6779C19.6732 13.2992 19.1539 13.0715 18.6043 13.034V12.4725C18.5832 12.2105 18.3676 12.0068 18.105 12.0002C17.844 12.0009 17.6265 12.2003 17.6032 12.4603L17.6052 13.0705V13.0706C17.1917 13.1287 16.8139 13.3362 16.543 13.6539C16.272 13.9716 16.1268 14.3776 16.1349 14.7951C16.1103 15.223 16.2631 15.6421 16.5574 15.9536C16.8765 16.234 17.2768 16.4054 17.6998 16.4429L18.4115 16.542C18.6033 16.5516 18.7868 16.6241 18.9333 16.7483C19.0617 16.8807 19.1278 17.0615 19.1153 17.2456C19.1153 17.7169 18.7513 17.9735 18.0718 17.9735C17.5555 18.0068 17.0474 17.8312 16.6615 17.4865C16.5648 17.3856 16.4317 17.3275 16.2919 17.325C16.1521 17.3227 16.0172 17.3759 15.9169 17.4733C15.8166 17.5708 15.7594 17.7042 15.7579 17.844C15.7562 17.9838 15.8104 18.1184 15.9085 18.2181L15.9041 18.2224Z" fill="#4499FE"/>
<path d="M26.4855 15.7142L23.9998 14.3332V12.0001C23.9998 11.4695 23.789 10.9609 23.414 10.5858C23.0389 10.2108 22.5303 10 21.9998 10H14.0001C13.4695 10 12.9609 10.2108 12.5858 10.5858C12.2108 10.9609 12 11.4695 12 12.0001V14.3332L9.51429 15.7142C9.35843 15.8008 9.22851 15.9275 9.13812 16.0812C9.04771 16.235 9 16.41 9 16.5884V25C9 25.7957 9.31607 26.5588 9.87874 27.1213C10.4412 27.6839 11.2043 28 12 28H24C24.7957 28 25.5587 27.6839 26.1212 27.1213C26.6839 26.5588 27 25.7957 27 25V16.5884C27 16.41 26.9523 16.235 26.8619 16.0812C26.7715 15.9275 26.6416 15.8008 26.4857 15.7142H26.4855ZM24.3348 18.921L18.3348 21.921C18.124 22.0263 17.8757 22.0263 17.6648 21.921L11.6648 18.921C11.4869 18.8321 11.3516 18.6762 11.2885 18.4875C11.2255 18.2989 11.2401 18.093 11.3288 17.915C11.4177 17.7371 11.5736 17.6016 11.7622 17.5387C11.9509 17.4757 12.1568 17.4903 12.3348 17.579L12.9997 17.9117V12C13.0001 11.7348 13.1055 11.4807 13.293 11.2932C13.4805 11.1057 13.7347 11.0002 13.9998 10.9999H22H21.9998C22.265 11.0002 22.5191 11.1057 22.7066 11.2932C22.8941 11.4807 22.9996 11.7348 22.9999 12V17.9117L23.6649 17.5792V17.579C23.8428 17.4903 24.0488 17.4757 24.2374 17.5387C24.4261 17.6016 24.5819 17.7371 24.6708 17.915C24.7595 18.093 24.7741 18.2989 24.7112 18.4875C24.6481 18.6762 24.5128 18.8321 24.3348 18.921H24.3348Z" fill="#4499FE"/>
</svg>
