<svg width="36" height="37" viewBox="0 0 36 37" fill="none" xmlns="http://www.w3.org/2000/svg">
<circle cx="18" cy="18.5" r="18" fill="#FFF6DF"/>
<path d="M17.9483 19.2087C17.9694 19.1876 17.9907 19.1664 18.0118 19.1664C17.504 18.3413 16.6577 17.8335 15.621 17.8547C15.4941 17.8547 15.3672 17.9393 15.3248 18.0663L14.2881 21.1553L13.9285 19.3147H13.9919C14.1189 19.3147 14.2247 19.2089 14.2247 19.0819V18.4472C14.2247 18.3203 14.1189 18.2145 13.9919 18.2145H13.1668C13.0399 18.2145 12.9341 18.3203 12.9341 18.4472V19.0819C12.9341 19.2089 13.0399 19.3147 13.1668 19.3147H13.2303L12.8706 21.1553L11.8339 18.0663C11.7916 17.9394 11.6858 17.8547 11.5377 17.8547C10.1202 17.8123 9.06241 18.8067 8.74499 20.2031L8.02585 23.1862C7.87768 23.8633 8.38549 24.4979 9.06256 24.4979H15.9385V24.4768L16.6366 21.4724C16.8481 20.5628 17.2925 19.78 17.9483 19.2087L17.9483 19.2087Z" fill="#F88341"/>
<path d="M16.8664 14.3004C16.8664 16.1233 15.3887 17.601 13.566 17.601C11.7432 17.601 10.2656 16.1233 10.2656 14.3004C10.2656 12.4777 11.7432 11 13.566 11C15.3887 11 16.8664 12.4777 16.8664 14.3004Z" fill="#F88341"/>
<path d="M28.0832 24.7092L27.4061 21.7261C27.0889 20.3297 26.031 19.3354 24.6134 19.3777C24.4865 19.3777 24.3596 19.4623 24.3172 19.5894L23.2805 22.6783L22.9209 20.8377H22.9843C23.1112 20.8377 23.217 20.7319 23.217 20.605V19.9702C23.217 19.8433 23.1112 19.7375 22.9843 19.7375H22.1592C22.0323 19.7375 21.9265 19.8433 21.9265 19.9702V20.605C21.9265 20.7319 22.0323 20.8377 22.1592 20.8377H22.2227L21.863 22.6783L20.7841 19.5683C20.7417 19.4414 20.6359 19.3566 20.4879 19.3566C19.0704 19.3143 18.0126 20.3087 17.6951 21.705L17.018 24.6882C16.8699 25.3653 17.3777 25.9998 18.0548 25.9998H27.0252C27.7235 25.9998 28.2312 25.3653 28.0832 24.7093L28.0832 24.7092Z" fill="#F88341"/>
<path d="M25.843 15.8236C25.843 17.6465 24.3655 19.124 22.5426 19.124C20.7199 19.124 19.2422 17.6465 19.2422 15.8236C19.2422 14.0009 20.7199 12.5232 22.5426 12.5232C24.3655 12.5232 25.843 14.0009 25.843 15.8236Z" fill="#F88341"/>
</svg>
