<svg width="145" height="142" viewBox="0 0 145 142" fill="none" xmlns="http://www.w3.org/2000/svg">
<g opacity="0.1" clip-path="url(#clip0_3575_6073)">
<path d="M22.875 -18.125H160.125C162.147 -18.125 164.087 -17.3217 165.517 -15.8917C166.947 -14.4617 167.75 -12.5223 167.75 -10.5V111.5C167.75 113.522 166.947 115.462 165.517 116.892C164.087 118.322 162.147 119.125 160.125 119.125H22.875C20.8527 119.125 18.9133 118.322 17.4833 116.892C16.0533 115.462 15.25 113.522 15.25 111.5V-10.5C15.25 -12.5223 16.0533 -14.4617 17.4833 -15.8917C18.9133 -17.3217 20.8527 -18.125 22.875 -18.125ZM30.5 -2.875V103.875H152.5V-2.875H30.5ZM91.5 73.375H137.25V88.625H91.5V73.375ZM66.0859 50.5L44.5147 28.9365L55.3041 18.1471L87.6494 50.5L55.3041 82.8529L44.5147 72.0635L66.0859 50.5Z" fill="#B898FA"/>
</g>
<defs>
<clipPath id="clip0_3575_6073">
<rect width="183" height="183" fill="white" transform="translate(0 -41)"/>
</clipPath>
</defs>
</svg>
