<?xml version="1.0" encoding="UTF-8"?>
<!DOCTYPE svg PUBLIC "-//W3C//DTD SVG 1.1//EN" "http://www.w3.org/Graphics/SVG/1.1/DTD/svg11.dtd">
<!-- Creator: CorelDRAW 2021 (64-Bit) -->
<svg xmlns="http://www.w3.org/2000/svg" xml:space="preserve" width="3.0625in" height="0.624992in" version="1.1" style="shape-rendering:geometricPrecision; text-rendering:geometricPrecision; image-rendering:optimizeQuality; fill-rule:evenodd; clip-rule:evenodd"
viewBox="0 0 3062.5 624.99"
 xmlns:xlink="http://www.w3.org/1999/xlink"
 xmlns:xodm="http://www.corel.com/coreldraw/odm/2003">
 <defs>
  <style type="text/css">
   <![CDATA[
    .fil1 {fill:black}
    .fil2 {fill:#025FE2}
    .fil3 {fill:white}
    .fil0 {fill:#025FE2;fill-rule:nonzero}
   ]]>
  </style>
 </defs>
 <g id="Layer_x0020_1">
  <metadata id="CorelCorpID_0Corel-Layer"/>
  <path className="fil0" d="M677.08 477.48l86.44 0 0 -98.19 57.5 0c76.74,0 123.43,-44.64 123.43,-118.07 0,-73.74 -46.69,-118.3 -123.43,-118.3l-143.94 0 0 334.56zm86.44 -163.81l0 -105.13 42.75 0c31.63,0 50.79,19.87 50.79,52.69 0,32.57 -19.17,52.45 -50.79,52.45l-42.75 0z"/>
  <path id="_1" className="fil0" d="M994.61 477.48l83.37 0 0 -135.65c0,-32.1 25.39,-51.74 67.04,-51.74 10.65,0 20.11,1.18 28.15,3.71l0 -68.85c-7.81,-2.76 -18.22,-4.42 -25.87,-4.42 -25.87,0 -57.97,16.64 -69.33,46.45l0 -39.04 -83.37 0 0 249.54z"/>
  <path id="_2" className="fil0" d="M1330.28 484.89c62.15,0 109.31,-30.76 122.25,-79.97l-76.74 0c-4.34,11.99 -19.87,21.3 -42.28,21.3 -27.92,0 -43.93,-14.59 -48.27,-50.16l169.1 0 0 -23.35c0,-82.02 -47.32,-132.19 -125.01,-132.19 -77.85,0 -125.24,50.16 -125.24,132.19 0,81.79 46.93,132.19 126.19,132.19zm-44.8 -156.71c4.57,-34.63 20.35,-48.98 46.22,-48.98 26.11,0 41.8,14.59 46.45,48.98l-92.67 0z"/>
  <path id="_3" className="fil0" d="M1662.32 484.89c60.57,0 103.08,-50.16 103.08,-132.19 0,-82.02 -42.51,-132.19 -103.08,-132.19 -34.63,0 -59.55,16.64 -74.61,46.22l0 -38.8 -83.37 0 0 334.56 83.37 0 0 -123.82c15.06,29.57 39.98,46.22 74.61,46.22zm-74.61 -132.19c0,-40.22 17.59,-64.67 46.45,-64.67 28.87,0 46.45,24.45 46.45,64.67 0,40.22 -17.59,64.67 -46.45,64.67 -28.87,0 -46.45,-24.45 -46.45,-64.67z"/>
  <path id="_4" className="fil0" d="M2279.79 308.78l0 16.41 -39.04 2.76c-74.69,5.13 -119.72,25.71 -119.72,80.44 0,45.51 31.39,76.5 82.73,76.5 35.1,0 61.2,-14.35 76.03,-39.75l0 32.33 81.79 0 0 -168.7c0,-54.74 -43.22,-88.26 -117.2,-88.26 -72.09,0 -107.89,31.86 -114.83,79.5l75.17 0c3.63,-10.65 14.04,-18.46 36.44,-18.46 25,0 38.65,10.18 38.65,27.21zm-78.32 93.15c0,-16.88 14.75,-26.11 39.28,-27.76l39.04 -2.76 0 17.11c0,24.06 -18.06,38.8 -44.41,38.8 -21.69,0 -33.91,-10.41 -33.91,-25.39z"/>
  <path id="_5" className="fil0" d="M2539.98 481.19c11.28,0 24.06,-0.95 36.75,-3.47l0 -58.44c-8.83,1.34 -18.77,1.57 -22.24,1.57 -21.69,0 -29.73,-9.22 -29.73,-24.45l0 -107.26 51.97 0 0 -61.2 -51.97 0 0 -64.67 -83.44 0 0 64.67 -39.51 0 0 61.2 39.51 0 0 107.26c0,52.69 36.52,84.79 98.67,84.79z"/>
  <path id="_6" className="fil0" d="M2793.23 332.12l0 145.36 83.44 0 0 -160.11c0,-60.1 -30.05,-96.85 -84.55,-96.85 -37.22,0 -65.85,16.88 -80.44,46.69l0 -139.12 -83.37 0 0 349.39 83.37 0 0 -141.65c0,-29.57 15.22,-47.8 41.17,-47.8 24.69,0 40.38,16.88 40.38,44.09z"/>
  <path id="_7" className="fil0" d="M2935.43 477.48l83.37 0 0 -249.54 -83.37 0 0 249.54zm-2.37 -326.76c0,25 18.77,42.98 43.93,42.98 25.4,0 43.85,-17.98 43.85,-42.98 0,-24.92 -18.46,-43.14 -43.85,-43.14 -25.16,0 -43.93,18.22 -43.93,43.14z"/>
  <path id="_8" className="fil0" d="M1944.2 484.89c87.39,0 140.54,-44.17 140.54,-111.83 0,-75.8 -66.8,-88.97 -121.14,-98.91 -37.39,-6.94 -67.91,-12.7 -67.91,-37.93 0,-20.27 19.88,-33.2 48.51,-33.2 29.34,0 47.63,13.56 52.68,36.44l80.69 0c-5.13,-64.2 -54.97,-103.95 -134.47,-103.95 -82.5,0 -133.13,42.98 -133.13,109.31 0,76.5 67.98,90.31 123.67,100.72 38.33,7.18 65.15,12.22 65.15,36.04 0,21.93 -22.16,35.81 -54.81,35.81 -31.63,0 -52.21,-13.17 -57.49,-36.75l-82.74 0c4.89,64.75 57.97,104.26 140.47,104.26z"/>
  <g id="_1434935431056">
   <path className="fil1" d="M133.27 439.95c33.15,4.9 68.16,-5.03 93.96,-29.98l115.08 -111.26c-17.52,-6.04 -31.27,-20.15 -36.82,-37.86l-116.89 113.01c-15.46,14.95 -37.21,19.65 -56.63,14.26 -9.71,-2.7 -18.84,-7.93 -26.31,-15.65 -5.67,-5.87 -9.87,-12.65 -12.6,-19.86 -8.06,-21.28 -3.32,-46.34 14,-63.09 0.24,-0.22 0.48,-0.45 0.71,-0.68l189.22 -182.94 0.7 -0.68c21.78,-21.06 23.67,-55.24 5.26,-78.54l-230.67 223c-14.76,14.26 -24.7,31.7 -29.81,50.24 -9.81,35.59 -1.78,75.24 24.32,104.33 0.92,1.03 1.87,2.04 2.83,3.04 13.16,13.61 29.02,23.13 45.94,28.54 5.8,1.85 11.72,3.22 17.7,4.11z"/>
   <path className="fil1" d="M461.24 346.93l-166.52 160.99 36.71 37.97 164.59 -159.12c44.07,-42.61 45.27,-113.54 2.66,-157.62 -10.98,-11.35 33.08,49.6 -37.44,117.78z"/>
   <path className="fil2" d="M434.28 195.32c-12.57,-1.86 -25.42,-1.58 -37.93,0.84 12.5,-2.42 25.35,-2.7 37.93,-0.84zm-230.33 118.69l116.74 -112.87c15.46,-14.95 37.21,-19.65 56.63,-14.25 6.74,1.87 13.21,4.97 19.03,9.27 2.56,1.89 5,4.02 7.28,6.38 5.68,5.87 9.87,12.65 12.61,19.86 0.58,1.54 1.1,3.1 1.55,4.67 1.66,5.84 2.41,11.89 2.24,17.91 -0.42,14.8 -6.37,29.45 -17.79,40.49l-189.79 183.49 -12.67 12.25 -25.31 24.47 28.72 29.71 13.6 14.06 44.67 46.2 7.98 8.26 37.99 -36.72 -0.02 -0.02 -36.69 -37.94 -8.28 -8.56 -13.3 -13.75c0.61,-0.56 1.22,-1.13 1.81,-1.72l186.06 -179.88c16.02,-15.48 26.37,-34.71 31.02,-55.02 3.37,-14.75 3.74,-30.08 1.08,-44.96 -1.33,-7.41 -3.4,-14.71 -6.22,-21.78 -4.71,-11.78 -11.5,-22.9 -20.39,-32.8 -0.92,-1.03 -1.87,-2.04 -2.83,-3.04 -13.16,-13.61 -29.02,-23.13 -45.95,-28.54 -37.91,-12.1 -81.2,-3.57 -111.67,25.88l-115 111.18c17.54,6.02 31.3,20.09 36.91,37.78z"/>
   <circle className="fil2" transform="matrix(0.214005 0.00150341 -0.00150341 0.214005 156.385 323.264)" r="123.39"/>
   <g>
    <path className="fil1" d="M349.3 280.3c-14.07,-0.1 -25.39,-11.58 -25.29,-25.65 0.1,-14.06 11.58,-25.39 25.65,-25.29 14.06,0.1 25.39,11.58 25.29,25.65 -0.1,14.07 -11.58,25.39 -25.65,25.29z"/>
    <circle className="fil3" transform="matrix(0.0215362 0.0066334 -0.0066334 0.0215362 349.783 241.989)" r="136.87"/>
    <path className="fil3" d="M338.98 246.24c10.24,10.02 7.26,14.52 0.18,25.56 4.05,-1.91 10.89,-9.06 13.76,-13.06 3.81,-5.3 8.4,-14.35 8.94,-20.87 -5.4,13.24 -12.69,13.49 -22.88,8.36zm10.7 4.14c-0.28,2.8 -0.83,6.37 -3.03,9.56l0.67 2.31 2.04 -1.48c1.53,-4.33 0.95,-7.89 0.32,-10.38z"/>
   </g>
  </g>
 </g>
</svg>
